<svg xmlns="http://www.w3.org/2000/svg" width="100%" height="100%" viewbox="0 0 100 100" fill="none">
  <path stroke="currentColor" stroke-dasharray="4 4" stroke-linecap="round" d="M.5-.5h100.832" transform="scale(.9982 1.0018) rotate(-45 112.17 30.105)"/>
  <path fill="#fff" stroke="currentColor" d="M87.5 24.53c-6.628-.032-12-5.424-12-12.043C75.5 5.87 80.872.528 87.5.56c6.628.032 12 5.424 12 12.042 0 6.62-5.372 11.96-12 11.928ZM49.5 61.486c-6.628-.032-12-5.424-12-12.043 0-6.619 5.372-11.96 12-11.927 6.628.031 12 5.424 12 12.042 0 6.619-5.372 11.96-12 11.928ZM12.5 99.44c-6.628-.032-12-5.424-12-12.043 0-6.618 5.372-11.959 12-11.927 6.628.032 12 5.424 12 12.043 0 6.618-5.372 11.959-12 11.927Z"/>
</svg>
